<svg width="27" height="28" viewBox="0 0 27 28" fill="none" xmlns="http://www.w3.org/2000/svg">
<path d="M14.2411 7.2869C15.8548 7.2869 17.163 6.01944 17.163 4.45595C17.163 2.89246 15.8548 1.625 14.2411 1.625C12.6274 1.625 11.3192 2.89246 11.3192 4.45595C11.3192 6.01944 12.6274 7.2869 14.2411 7.2869Z" fill="#FFCB00"/>
<path d="M18.2896 14.3138L20.0989 14.3269C20.8344 14.3318 21.4854 14.7938 21.712 15.472L23.5415 21.1356C23.8324 22.0055 23.3403 22.9377 22.4425 23.2195C22.2683 23.2735 22.0908 23.2997 21.9166 23.2997C21.1963 23.2997 20.525 22.8541 20.2916 22.1529L19.1046 18.6011L12.8585 18.5585C11.9149 18.552 11.1557 17.8066 11.1625 16.8924V9.76917C11.1625 8.79275 11.9792 8.00146 12.987 8.00146H15.7381C16.6393 8.00146 17.407 8.64039 17.5406 9.50377L18.2913 14.3121L18.2896 14.3138Z" fill="#FFCB00"/>
<path d="M11.6474 26.375C7.70594 26.375 4.5 23.2688 4.5 19.45C4.5 16.9664 5.88485 14.6597 8.11514 13.4293C8.68328 13.1164 9.40529 13.3081 9.72826 13.8585C10.0512 14.409 9.85338 15.1086 9.28524 15.4215C7.79218 16.2455 6.86557 17.7888 6.86557 19.45C6.86557 22.0041 9.00962 24.0831 11.6474 24.0831C13.734 24.0831 15.5635 22.7921 16.201 20.8688C16.4005 20.2659 17.0668 19.9349 17.689 20.1282C18.3113 20.3216 18.6528 20.967 18.4533 21.5699C17.5013 24.4435 14.7654 26.375 11.6474 26.375Z" fill="#498FFF"/>
</svg>
