<svg width="27" height="28" viewBox="0 0 27 28" fill="none" xmlns="http://www.w3.org/2000/svg">
<path d="M13.5 25.25C19.7132 25.25 24.75 20.2132 24.75 14C24.75 7.7868 19.7132 2.75 13.5 2.75C7.2868 2.75 2.25 7.7868 2.25 14C2.25 20.2132 7.2868 25.25 13.5 25.25Z" fill="#96D534"/>
<path d="M8.73336 15.6519C9.64631 15.6519 10.3864 14.9118 10.3864 13.9988C10.3864 13.0859 9.64631 12.3458 8.73336 12.3458C7.82041 12.3458 7.08032 13.0859 7.08032 13.9988C7.08032 14.9118 7.82041 15.6519 8.73336 15.6519Z" fill="white"/>
<path d="M13.4998 15.6519C14.4128 15.6519 15.1529 14.9118 15.1529 13.9988C15.1529 13.0859 14.4128 12.3458 13.4998 12.3458C12.5869 12.3458 11.8468 13.0859 11.8468 13.9988C11.8468 14.9118 12.5869 15.6519 13.4998 15.6519Z" fill="white"/>
<path d="M18.2669 15.6519C19.1799 15.6519 19.92 14.9118 19.92 13.9988C19.92 13.0859 19.1799 12.3458 18.2669 12.3458C17.354 12.3458 16.6139 13.0859 16.6139 13.9988C16.6139 14.9118 17.354 15.6519 18.2669 15.6519Z" fill="white"/>
</svg>
