<svg width="27" height="28" viewBox="0 0 27 28" fill="none" xmlns="http://www.w3.org/2000/svg">
<path d="M23.5475 8.9364C23.0707 7.99256 22.4652 7.12473 21.753 6.3574C20.7565 5.28119 19.5516 4.40109 18.2032 3.77964C16.7728 3.11895 15.1793 2.75 13.5 2.75C12.0708 2.75 10.7053 3.01722 9.44765 3.50261C6.49235 4.64379 4.14012 6.99847 3.00016 9.955C2.51599 11.2102 2.25 12.5744 2.25 14C2.25 20.2134 7.28664 25.25 13.5 25.25C17.3366 25.25 20.7246 23.3292 22.7545 20.3972C24.0121 18.5807 24.75 16.3767 24.75 14C24.75 12.1785 24.3161 10.4576 23.5475 8.93517V8.9364Z" fill="#498FFF"/>
<path d="M3.78767 11.3646C3.82199 11.4357 3.87102 11.4982 3.93108 11.5497L5.50495 12.8932C5.69127 13.0525 5.75746 13.3111 5.66921 13.5404L5.40935 14.2157C5.36032 14.342 5.35786 14.4817 5.40199 14.6104L5.91191 16.1022C5.97319 16.2811 6.11783 16.4184 6.29925 16.4711L8.00427 16.9627C8.29355 17.046 8.47006 17.3365 8.41122 17.6319L7.89028 20.2379C7.85963 20.3936 7.89396 20.5566 7.98589 20.6865L9.23616 22.4455C9.32932 22.5766 9.47273 22.6624 9.63208 22.6833L9.71298 22.6943C10.0991 22.7446 10.4227 22.4075 10.3577 22.0238L10.2682 21.5053C10.2278 21.2675 10.3381 21.0297 10.5465 20.9084L11.6117 20.2869C11.809 20.1717 11.9193 19.9523 11.8948 19.7255L11.8262 19.0857C11.8041 18.8773 11.8961 18.6738 12.0664 18.5525L13.7089 17.3892C13.9357 17.2287 14.046 16.959 13.9676 16.693C13.8377 16.2554 13.6428 15.8166 13.5251 15.6646C13.465 15.5874 13.0887 15.5788 12.7516 15.5947C12.5433 15.6045 12.3447 15.5016 12.2344 15.3251L11.2905 13.821C11.1827 13.6494 10.9927 13.5465 10.7904 13.5502L8.74831 13.5869C8.54483 13.5906 8.35361 13.4864 8.24575 13.3124L7.65984 12.3636C7.51275 12.1258 7.21856 12.0278 6.9587 12.1283C6.71233 12.2239 6.43285 12.1405 6.27841 11.926L5.6974 11.1134C5.61895 11.003 5.58095 10.8694 5.59076 10.7346L5.63611 10.1229C5.65695 9.84469 5.87391 9.62038 6.15093 9.59096L8.23839 9.36787C8.32542 9.35807 8.40755 9.32988 8.48232 9.28452L10.0427 8.31495C10.115 8.2696 10.1775 8.20831 10.2241 8.13721L11.3469 6.39051C11.4168 6.28142 11.521 6.19929 11.6435 6.15762L12.2515 5.94679C12.4452 5.87937 12.5886 5.71512 12.6291 5.51409L12.6805 5.25423C12.7467 4.92083 12.5126 4.60213 12.1743 4.56658L10.7071 4.41091C10.598 4.39988 10.495 4.35698 10.408 4.28834L9.47886 3.5443L9.45067 3.50753C6.49292 4.64503 4.14069 6.99971 3.00073 9.95624L3.06692 10.004L3.78767 11.3634V11.3646Z" fill="#96D534"/>
<path d="M17.4004 4.54077C17.2937 4.62903 17.1577 4.67438 17.0204 4.6707L15.6059 4.63516C15.4183 4.63025 15.2418 4.71606 15.129 4.86683L14.6596 5.49319C14.4622 5.75673 14.5247 6.13181 14.7969 6.31812L15.1168 6.53631C15.2688 6.63927 15.46 6.66501 15.6328 6.60495L17.2508 6.0411C17.3673 6.00065 17.4935 5.9982 17.6112 6.03497L20.3397 6.87462C20.4819 6.91874 20.6351 6.90526 20.7687 6.83907L21.6305 6.43702L21.7567 6.35735C20.7602 5.28113 19.5552 4.40104 18.2069 3.77958L18.1959 3.8617L17.4016 4.542L17.4004 4.54077Z" fill="#96D534"/>
<path d="M23.5475 8.93516L23.3967 8.98296L21.6157 9.60319C21.4919 9.65713 21.3534 9.66693 21.2234 9.62894L18.7609 8.91922C18.6444 8.88613 18.5403 8.81626 18.4655 8.71942L17.8967 7.99255C17.7815 7.84546 17.6038 7.76333 17.4175 7.77069L15.6119 7.84546C15.4759 7.85159 15.3472 7.9043 15.2466 7.99623L14.532 8.64833C14.3837 8.78316 14.3163 8.98541 14.3543 9.18276L14.7772 11.4149C14.8066 11.5718 14.8998 11.709 15.0346 11.7948L16.7139 12.8637C16.8597 12.9569 17.0387 12.9789 17.203 12.9262L18.5697 12.4825C18.7572 12.4212 18.9631 12.4604 19.1151 12.5855L20.0087 13.3197C20.1423 13.43 20.2195 13.593 20.2195 13.7659V14.9463C20.2195 15.0664 20.2575 15.1828 20.3262 15.2809L21.6316 17.1171C21.715 17.2335 21.7517 17.3782 21.7346 17.5204L21.5581 19.006C21.5348 19.2021 21.6132 19.3982 21.7677 19.5232L22.6453 20.3286L22.7532 20.396C24.0108 18.5794 24.7487 16.3755 24.7487 13.9988C24.7487 12.1773 24.3148 10.4563 23.5462 8.93393L23.5475 8.93516Z" fill="#96D534"/>
</svg>
