<svg width="27" height="28" viewBox="0 0 27 28" fill="none" xmlns="http://www.w3.org/2000/svg">
<path d="M3.83638 19.3958C5.33384 19.3958 6.54777 18.1541 6.54777 16.6223C6.54777 15.0904 5.33384 13.8487 3.83638 13.8487C2.33893 13.8487 1.125 15.0904 1.125 16.6223C1.125 18.1541 2.33893 19.3958 3.83638 19.3958Z" fill="#FBB58E"/>
<path d="M23.1634 19.3958C24.6608 19.3958 25.8748 18.1541 25.8748 16.6223C25.8748 15.0904 24.6608 13.8487 23.1634 13.8487C21.6659 13.8487 20.452 15.0904 20.452 16.6223C20.452 18.1541 21.6659 19.3958 23.1634 19.3958Z" fill="#FBB58E"/>
<path d="M14.3523 5.45541H12.6974C7.82616 5.45541 3.87721 9.27643 3.87721 13.9899V17.8402C3.87721 22.5537 7.82616 26.3747 12.6974 26.3747H14.3523C19.2235 26.3747 23.1725 22.5537 23.1725 17.8402V13.9899C23.1725 9.27643 19.2235 5.45541 14.3523 5.45541Z" fill="#FBB58E"/>
<path d="M9.642 16.8169C10.0975 16.8169 10.4667 16.374 10.4667 15.8277C10.4667 15.2814 10.0975 14.8386 9.642 14.8386C9.18655 14.8386 8.81734 15.2814 8.81734 15.8277C8.81734 16.374 9.18655 16.8169 9.642 16.8169Z" fill="#3C2414"/>
<path d="M16.9072 16.8169C17.3626 16.8169 17.7318 16.374 17.7318 15.8277C17.7318 15.2814 17.3626 14.8386 16.9072 14.8386C16.4517 14.8386 16.0825 15.2814 16.0825 15.8277C16.0825 16.374 16.4517 16.8169 16.9072 16.8169Z" fill="#3C2414"/>
<path d="M7.92963 20.3077C9.13987 20.3077 10.121 19.6033 10.121 18.7343C10.121 17.8654 9.13987 17.161 7.92963 17.161C6.71939 17.161 5.7383 17.8654 5.7383 18.7343C5.7383 19.6033 6.71939 20.3077 7.92963 20.3077Z" fill="#FF917B"/>
<path d="M18.8639 20.3077C20.0741 20.3077 21.0552 19.6033 21.0552 18.7343C21.0552 17.8654 20.0741 17.161 18.8639 17.161C17.6537 17.161 16.6726 17.8654 16.6726 18.7343C16.6726 19.6033 17.6537 20.3077 18.8639 20.3077Z" fill="#FF917B"/>
<path d="M15.5959 18.3022C15.8085 18.3062 15.9663 18.5146 15.9128 18.7257C15.5753 20.0548 14.5612 20.6669 13.5198 20.6669C12.4783 20.6669 11.3916 20.08 11.0842 18.6209C11.0389 18.4084 11.2049 18.2079 11.4176 18.2119L15.5959 18.3022Z" fill="white"/>
<path d="M4.19722 13.3976C4.01884 14.0933 3.87751 15.0825 3.86653 15.8127C3.85555 16.5429 4.10117 16.6213 4.73922 16.3279C5.84518 15.8193 7.2736 14.5381 7.66604 12.8798C7.86637 12.0341 4.19722 13.3989 4.19722 13.3989V13.3976Z" fill="#3C2414"/>
<path d="M22.8917 13.3976C23.0591 14.0933 23.1908 15.0825 23.2004 15.8127C23.21 16.5429 22.9795 16.6213 22.3826 16.3279C21.3466 15.8193 20.0074 14.5381 19.6397 12.8798C19.453 12.0341 22.8917 13.3989 22.8917 13.3989V13.3976Z" fill="#3C2414"/>
<path d="M13.4238 4.43708C14.4188 4.43708 15.2255 3.80757 15.2255 3.03104C15.2255 2.2545 14.4188 1.625 13.4238 1.625C12.4288 1.625 11.6222 2.2545 11.6222 3.03104C11.6222 3.80757 12.4288 4.43708 13.4238 4.43708Z" fill="#F3684F"/>
<path d="M13.4496 11.7723L17.0529 11.9847L23.1316 13.7904C23.1316 13.7904 22.7817 10.2481 22.5827 9.08368C22.3837 7.91928 21.6647 6.52387 20.0469 5.13642C18.8271 4.09018 17.2821 3.3719 15.4145 2.97359C14.1453 2.70273 12.8294 2.70273 11.5602 2.97359C9.69265 3.3719 8.1476 4.09151 6.92775 5.13642C5.30998 6.52254 4.59097 7.91928 4.392 9.08368C4.19304 10.2481 3.84314 13.7904 3.84314 13.7904L9.9218 11.9847L13.5251 11.7723" fill="white"/>
<path d="M13.4496 11.7737L13.488 11.7751L13.5278 11.7737H13.4496Z" fill="#EAEAF0"/>
<path d="M11.9445 2.9026C11.8169 2.92385 11.6893 2.94642 11.5617 2.9743C9.6942 3.37261 8.14915 4.09223 6.92931 5.13713C5.31153 6.52325 4.59252 7.92 4.39356 9.08439C4.1946 10.2488 3.8447 13.7911 3.8447 13.7911L7.437 12.7236C7.92961 7.41547 7.96254 5.51021 11.9445 2.90128V2.9026Z" fill="#FFCB00"/>
<path d="M22.5842 9.08446C22.3853 7.92006 21.6663 6.52465 20.0485 5.13719C18.8286 4.09096 17.2836 3.37268 15.4161 2.97436C15.2199 2.93188 15.0223 2.90001 14.8247 2.8708C18.8437 5.48904 18.8863 7.385 19.3775 12.6772L23.1331 13.7925C23.1331 13.7925 22.7832 10.2502 22.5842 9.08579V9.08446Z" fill="#FFCB00"/>
<path d="M13.5692 9.42348C16.4562 9.42348 21.2834 11.0552 22.7174 11.9063C24.1526 12.7573 24.4778 13.3097 24.3269 14.028C24.2089 14.5856 23.0988 14.6852 21.8392 14.1647C19.3844 13.149 16.6565 12.5834 13.6049 12.5834C10.5532 12.5834 7.50013 13.3376 5.30056 14.1647C4.02308 14.6453 2.93084 14.5869 2.81284 14.028C2.6619 13.3097 2.9871 12.7573 4.42238 11.9063C5.85765 11.0552 10.7768 9.42348 13.5706 9.42348H13.5692Z" fill="#F3684F"/>
</svg>
