<svg width="27" height="28" viewBox="0 0 27 28" fill="none" xmlns="http://www.w3.org/2000/svg">
<path d="M7.37612 5.51513C6.97591 3.54455 8.49157 2.31811 10.9942 1.8521C15.7887 0.96149 20.6858 2.76046 22.8654 6.02109C25.1625 9.45629 25.2585 14.4301 24.1728 16.7069C23.0871 18.9837 9.90718 10.4638 9.90718 10.4638C9.90718 10.4638 7.91694 8.18695 7.37477 5.51365L7.37612 5.51513Z" fill="#E5DFDC"/>
<path d="M8.70864 5.06741C7.72641 4.77995 6.01018 4.37093 4.95856 5.25905C2.18403 7.59875 1.40999 11.2885 2.90469 17.0276C4.4194 19.3159 8.17349 17.3151 8.17349 17.3151L10.4062 11.7647L8.70998 5.06598L8.70864 5.06741Z" fill="#E5DFDC"/>
<path d="M23.0305 17.7139C23.0305 23.3161 18.8457 26.3742 13.4454 26.3742C8.04508 26.3742 3.47507 23.3161 3.47507 17.7139C3.47507 10.9982 7.85245 7.5708 13.2528 7.5708C18.6531 7.5708 23.0305 10.8756 23.0305 17.7139Z" fill="#FBB58E"/>
<path d="M3.43658 18.2253C4.71323 18.2253 5.74815 17.1517 5.74815 15.8274C5.74815 14.503 4.71323 13.4294 3.43658 13.4294C2.15993 13.4294 1.125 14.503 1.125 15.8274C1.125 17.1517 2.15993 18.2253 3.43658 18.2253Z" fill="#FBB58E"/>
<path d="M15.4106 18.7756C15.6351 18.7756 15.8051 19.0071 15.7533 19.2456C15.4305 20.7532 14.377 21.4671 13.281 21.4919C12.1478 21.5181 11.0279 20.8814 10.6705 19.2428C10.6187 19.0044 10.7874 18.7729 11.0119 18.7729H15.4106V18.7756Z" fill="#DE6D67"/>
<path d="M9.38297 10.028C10.2385 9.83504 10.8629 10.1258 11.0569 10.6013C11.2495 11.0767 10.754 11.34 10.3607 11.4295C9.96751 11.5191 9.24879 11.6804 8.92996 11.7534C8.32948 11.8898 8.03057 11.4764 8.07441 11.136C8.12888 10.7019 8.64831 10.1961 9.3843 10.0294L9.38297 10.028Z" fill="white"/>
<path d="M16.8998 10.028C16.0443 9.83504 15.4199 10.1258 15.2259 10.6013C15.0333 11.0767 15.5288 11.34 15.922 11.4295C16.3153 11.5191 17.034 11.6804 17.3528 11.7534C17.9533 11.8898 18.2522 11.4764 18.2084 11.136C18.1539 10.7019 17.6345 10.1961 16.8985 10.0294L16.8998 10.028Z" fill="white"/>
<path d="M12.0214 16.1414C10.58 15.7431 8.70685 15.8423 7.60154 16.7395C6.74334 17.4355 6.20795 18.035 5.68054 18.8329C7.88982 20.3282 11.2044 20.7761 13.0776 18.6841C14.9508 16.5907 13.6156 16.5838 12.0214 16.1428V16.1414Z" fill="white"/>
<path d="M14.232 16.1435C15.6734 15.7452 17.5466 15.8444 18.6519 16.7416C19.5101 17.4376 20.0455 18.0371 20.5729 18.835C18.3636 20.3303 15.049 20.7782 13.1759 18.6862C11.3027 16.5928 12.6378 16.5859 14.232 16.1449V16.1435Z" fill="white"/>
<path d="M13.2252 16.9676C13.832 16.9676 14.3239 16.4573 14.3239 15.8279C14.3239 15.1984 13.832 14.6881 13.2252 14.6881C12.6184 14.6881 12.1266 15.1984 12.1266 15.8279C12.1266 16.4573 12.6184 16.9676 13.2252 16.9676Z" fill="#FFB7A6"/>
<path d="M9.8876 15.4745C10.3234 15.4745 10.6767 15.0889 10.6767 14.6132C10.6767 14.1375 10.3234 13.7518 9.8876 13.7518C9.45178 13.7518 9.09848 14.1375 9.09848 14.6132C9.09848 15.0889 9.45178 15.4745 9.8876 15.4745Z" fill="#3C2414"/>
<path d="M16.6326 15.4745C17.0684 15.4745 17.4217 15.0889 17.4217 14.6132C17.4217 14.1375 17.0684 13.7518 16.6326 13.7518C16.1968 13.7518 15.8435 14.1375 15.8435 14.6132C15.8435 15.0889 16.1968 15.4745 16.6326 15.4745Z" fill="#3C2414"/>
<path d="M23.5633 18.2253C24.8399 18.2253 25.8749 17.1517 25.8749 15.8274C25.8749 14.503 24.8399 13.4294 23.5633 13.4294C22.2866 13.4294 21.2517 14.503 21.2517 15.8274C21.2517 17.1517 22.2866 18.2253 23.5633 18.2253Z" fill="#FBB58E"/>
</svg>
