<svg width="27" height="28" viewBox="0 0 27 28" fill="none" xmlns="http://www.w3.org/2000/svg">
<path d="M20.0441 24.125H6.88561C5.33516 24.125 4.07947 23.0137 4.07947 21.6416V9.2368L13.2904 5.04065L22.8518 9.2368V21.6416C22.8518 23.0137 21.5961 24.125 20.0456 24.125H20.0441Z" fill="#FBDE5E"/>
<path d="M3.00027 11.9987L1.125 9.37031L12.5616 2.97827C13.1015 2.6775 13.7872 2.6735 14.3301 2.96895L25.875 9.26385L24.0328 11.9109L13.7902 6.32667C13.5917 6.21887 13.3406 6.2202 13.1436 6.32933L3.00027 11.9987Z" fill="#498FFF"/>
<path d="M18.1524 12.957C16.9902 11.5791 14.8823 11.3464 13.4223 12.4377L13.2748 12.5481L13.1273 12.4377C11.6673 11.3477 9.55932 11.5791 8.39712 12.957C7.21423 14.3613 7.46239 16.4177 8.95133 17.5274L13.2748 20.75L17.5982 17.5274C19.0872 16.4177 19.3353 14.3613 18.1524 12.957Z" fill="#F3684F"/>
</svg>
