<svg width="27" height="28" viewBox="0 0 27 28" fill="none" xmlns="http://www.w3.org/2000/svg">
<path d="M9.04752 17.0433C12.8017 17.0433 15.845 14.0954 15.845 10.4591C15.845 6.82282 12.8017 3.875 9.04752 3.875C5.29336 3.875 2.25 6.82282 2.25 10.4591C2.25 14.0954 5.29336 17.0433 9.04752 17.0433Z" fill="#FBB58E"/>
<path d="M19.0772 17.0433C22.8314 17.0433 25.8748 14.0954 25.8748 10.4591C25.8748 6.82282 22.8314 3.875 19.0772 3.875C15.3231 3.875 12.2797 6.82282 12.2797 10.4591C12.2797 14.0954 15.3231 17.0433 19.0772 17.0433Z" fill="#906453"/>
<path d="M21.2864 17.7903L11.0951 7.91892L13.5437 5.54715L23.7351 15.4185C24.411 16.0732 24.411 17.1356 23.7351 17.7903C23.0591 18.445 21.9623 18.445 21.2864 17.7903Z" fill="#FBB58E"/>
<path d="M18.9359 20.0909L8.74457 10.2195L11.1932 7.84775L21.3845 17.7191C22.0605 18.3738 22.0605 19.4362 21.3845 20.0909C20.7086 20.7456 19.6118 20.7456 18.9359 20.0909Z" fill="#FBB58E"/>
<path d="M16.5173 22.4586L6.32593 12.5886L8.77457 10.2168L18.9659 20.0882C19.6418 20.7429 19.6418 21.8053 18.9659 22.46C18.29 23.1147 17.1932 23.1147 16.5173 22.46V22.4586Z" fill="#FBB58E"/>
<path d="M14.1651 24.7595L3.97375 14.8881L6.42239 12.5163L16.6137 22.3877C17.2896 23.0424 17.2896 24.1048 16.6137 24.7595C15.9378 25.4142 14.841 25.4142 14.1651 24.7595Z" fill="#FBB58E"/>
<path d="M12.6763 12.0369L16.6341 8.26241L14.1854 5.89064L10.2276 9.66516C9.55172 10.3199 9.55172 11.3822 10.2276 12.0369C10.9036 12.6916 12.0004 12.6916 12.6763 12.0369Z" fill="#906453"/>
<path d="M5.51533 18.2743C6.46229 18.2743 7.22995 17.5308 7.22995 16.6135C7.22995 15.6963 6.46229 14.9528 5.51533 14.9528C4.56838 14.9528 3.80072 15.6963 3.80072 16.6135C3.80072 17.5308 4.56838 18.2743 5.51533 18.2743Z" fill="#906453"/>
<path d="M7.92244 20.5882C8.86939 20.5882 9.63705 19.8446 9.63705 18.9274C9.63705 18.0102 8.86939 17.2666 7.92244 17.2666C6.97548 17.2666 6.20782 18.0102 6.20782 18.9274C6.20782 19.8446 6.97548 20.5882 7.92244 20.5882Z" fill="#906453"/>
<path d="M10.3004 22.9208C11.2474 22.9208 12.015 22.1772 12.015 21.26C12.015 20.3428 11.2474 19.5992 10.3004 19.5992C9.35347 19.5992 8.58582 20.3428 8.58582 21.26C8.58582 22.1772 9.35347 22.9208 10.3004 22.9208Z" fill="#906453"/>
<path d="M12.7092 25.2258C13.6561 25.2258 14.4238 24.4823 14.4238 23.565C14.4238 22.6478 13.6561 21.9042 12.7092 21.9042C11.7622 21.9042 10.9946 22.6478 10.9946 23.565C10.9946 24.4823 11.7622 25.2258 12.7092 25.2258Z" fill="#906453"/>
</svg>
