<svg width="27" height="28" viewBox="0 0 27 28" fill="none" xmlns="http://www.w3.org/2000/svg">
<g clip-path="url(#clip0_292_7610)">
<path d="M17.4806 17.4113C22.1167 17.4113 25.8751 13.6255 25.8751 8.95563C25.8751 4.28571 22.1167 0.5 17.4806 0.5C12.8445 0.5 9.08612 4.28571 9.08612 8.95563C9.08612 13.6255 12.8445 17.4113 17.4806 17.4113Z" fill="#F5D964"/>
<path d="M18.2754 8.11749C18.6232 8.11749 18.895 8.43546 18.8249 8.77846C18.5209 10.28 17.2027 11.4105 15.6214 11.4105C14.0401 11.4105 12.7219 10.28 12.418 8.77846C12.3478 8.43546 12.6196 8.11749 12.9675 8.11749H18.2754Z" fill="#F8684F"/>
<path d="M13.756 6.84351C14.1805 6.84351 14.5247 6.47905 14.5247 6.02945C14.5247 5.57986 14.1805 5.21539 13.756 5.21539C13.3314 5.21539 12.9872 5.57986 12.9872 6.02945C12.9872 6.47905 13.3314 6.84351 13.756 6.84351Z" fill="#5C2F17"/>
<path d="M17.3354 6.84351C17.76 6.84351 18.1041 6.47905 18.1041 6.02945C18.1041 5.57986 17.76 5.21539 17.3354 5.21539C16.9109 5.21539 16.5667 5.57986 16.5667 6.02945C16.5667 6.47905 16.9109 6.84351 17.3354 6.84351Z" fill="#5C2F17"/>
<path d="M8.88229 26.3752C13.1665 26.3752 16.6396 22.8768 16.6396 18.5614C16.6396 14.2459 13.1665 10.7476 8.88229 10.7476C4.59805 10.7476 1.125 14.2459 1.125 18.5614C1.125 22.8768 4.59805 26.3752 8.88229 26.3752Z" fill="#88DC5C"/>
<path d="M12.4186 17.4467C12.7664 17.4467 13.0382 17.7646 12.9681 18.1076C12.6641 19.6092 11.3459 20.7397 9.76461 20.7397C8.18334 20.7397 6.86512 19.6092 6.56115 18.1076C6.491 17.7646 6.76282 17.4467 7.11065 17.4467H12.4186Z" fill="#F8684F"/>
<path d="M7.89933 16.1707C8.32388 16.1707 8.66804 15.8062 8.66804 15.3566C8.66804 14.9071 8.32388 14.5426 7.89933 14.5426C7.47478 14.5426 7.13062 14.9071 7.13062 15.3566C7.13062 15.8062 7.47478 16.1707 7.89933 16.1707Z" fill="#5C2F17"/>
<path d="M11.4787 16.1705C11.9033 16.1705 12.2474 15.8061 12.2474 15.3565C12.2474 14.9069 11.9033 14.5424 11.4787 14.5424C11.0542 14.5424 10.71 14.9069 10.71 15.3565C10.71 15.8061 11.0542 16.1705 11.4787 16.1705Z" fill="#5C2F17"/>
</g>
<defs>
<clipPath id="clip0_292_7610">
<rect width="27" height="27" fill="white" transform="translate(0 0.5)"/>
</clipPath>
</defs>
</svg>
