<svg width="27" height="28" viewBox="0 0 27 28" fill="none" xmlns="http://www.w3.org/2000/svg">
<path d="M22.9674 10.9666C23.3914 8.87372 23.1857 6.80154 21.8067 4.44262C21.5064 3.93009 20.8238 3.72638 20.265 3.99107C19.1584 4.51398 17.6154 5.43005 16.4448 6.43304C15.6483 6.31626 14.7113 6.25269 13.595 6.25269C12.4106 6.25269 11.4236 6.32016 10.5867 6.44472C9.41346 5.43653 7.86344 4.51528 6.75132 3.99107C6.19247 3.72767 5.50991 3.93009 5.20964 4.44262C3.83339 6.79506 3.62625 8.86204 4.04608 10.9498C2.2361 13.3554 1.37003 18.1524 3.50253 20.972C5.35977 23.4269 8.94498 24.0121 12.7137 24.1081C12.7832 24.1185 12.8555 24.125 12.9305 24.125C13.121 24.125 13.3101 24.125 13.4991 24.1224C13.6882 24.1237 13.8786 24.125 14.0677 24.125C14.1428 24.125 14.215 24.1185 14.2859 24.1081C18.0546 24.0108 21.6399 23.4269 23.4971 20.972C25.6254 18.1589 24.7677 13.3775 22.9661 10.9654L22.9674 10.9666Z" fill="#FFE4AE"/>
<mask id="mask0_292_7627" style="mask-type:luminance" maskUnits="userSpaceOnUse" x="2" y="3" width="23" height="22">
<path d="M22.9674 10.9666C23.3914 8.87372 23.1857 6.80154 21.8067 4.44262C21.5064 3.93009 20.8238 3.72638 20.265 3.99107C19.1584 4.51398 17.6154 5.43005 16.4448 6.43304C15.6483 6.31626 14.7113 6.25269 13.595 6.25269C12.4106 6.25269 11.4236 6.32016 10.5867 6.44472C9.41346 5.43653 7.86344 4.51528 6.75132 3.99107C6.19247 3.72767 5.50991 3.93009 5.20964 4.44262C3.83339 6.79506 3.62625 8.86204 4.04608 10.9498C2.2361 13.3554 1.37003 18.1524 3.50253 20.972C5.35977 23.4269 8.94498 24.0121 12.7137 24.1081C12.7832 24.1185 12.8555 24.125 12.9305 24.125C13.121 24.125 13.3101 24.125 13.4991 24.1224C13.6882 24.1237 13.8786 24.125 14.0677 24.125C14.1428 24.125 14.215 24.1185 14.2859 24.1081C18.0546 24.0108 21.6399 23.4269 23.4971 20.972C25.6254 18.1589 24.7677 13.3775 22.9661 10.9654L22.9674 10.9666Z" fill="white"/>
</mask>
<g mask="url(#mask0_292_7627)">
<path d="M2.13223 16.124C4.09234 18.7269 7.69284 18.7957 9.26649 17.9627C11.62 16.717 13.4008 13.5121 13.7247 12.3586C13.886 13.5549 15.3442 16.717 17.9549 17.9627C19.5745 18.736 23.1277 18.7256 25.0892 16.124L27.4344 8.45039C27.4344 8.45039 24.4984 3.98685 24.5192 3.91679C25.4868 0.704078 4.70957 3.00851 4.70957 3.00851L0.643372 11.4659L2.13223 16.1227V16.124Z" fill="#F2980E"/>
</g>
<path d="M14.5885 16.6301H12.52C12.1877 16.6301 12.0112 16.9973 12.2322 17.2283L12.7869 17.8096C13.1692 18.2105 13.835 18.2235 14.2368 17.8407L14.8637 17.2413C15.1015 17.0142 14.9291 16.6301 14.5885 16.6301Z" fill="#5C2F17"/>
<path d="M9.17859 16.0071C9.68301 16.0071 10.0919 15.6254 10.0919 15.1546C10.0919 14.6838 9.68301 14.3021 9.17859 14.3021C8.67417 14.3021 8.26526 14.6838 8.26526 15.1546C8.26526 15.6254 8.67417 16.0071 9.17859 16.0071Z" fill="#5C2F17"/>
<path d="M17.9551 16.0071C18.4595 16.0071 18.8684 15.6254 18.8684 15.1546C18.8684 14.6838 18.4595 14.3021 17.9551 14.3021C17.4507 14.3021 17.0417 14.6838 17.0417 15.1546C17.0417 15.6254 17.4507 16.0071 17.9551 16.0071Z" fill="#5C2F17"/>
<path d="M16.8546 18.4333C16.7003 19.134 16.0358 19.6621 15.2406 19.6621C14.3301 19.6621 13.578 18.9731 13.578 18.1232C13.578 18.9731 12.8245 19.6621 11.9154 19.6621C11.1188 19.6621 10.4543 19.1352 10.3014 18.4333" stroke="#5C2F17" stroke-linecap="round" stroke-linejoin="round"/>
<mask id="mask1_292_7627" style="mask-type:luminance" maskUnits="userSpaceOnUse" x="2" y="3" width="23" height="22">
<path d="M22.9674 10.9666C23.3914 8.87372 23.1857 6.80154 21.8067 4.44262C21.5064 3.93009 20.8238 3.72638 20.265 3.99107C19.1584 4.51398 17.6154 5.43005 16.4448 6.43304C15.6483 6.31626 14.7113 6.25269 13.595 6.25269C12.4106 6.25269 11.4236 6.32016 10.5867 6.44472C9.41346 5.43653 7.86344 4.51528 6.75132 3.99107C6.19247 3.72767 5.50991 3.93009 5.20964 4.44262C3.83339 6.79506 3.62625 8.86204 4.04608 10.9498C2.2361 13.3554 1.37003 18.1524 3.50253 20.972C5.35977 23.4269 8.94498 24.0121 12.7137 24.1081C12.7832 24.1185 12.8555 24.125 12.9305 24.125C13.121 24.125 13.3101 24.125 13.4991 24.1224C13.6882 24.1237 13.8786 24.125 14.0677 24.125C14.1428 24.125 14.215 24.1185 14.2859 24.1081C18.0546 24.0108 21.6399 23.4269 23.4971 20.972C25.6254 18.1589 24.7677 13.3775 22.9661 10.9654L22.9674 10.9666Z" fill="white"/>
</mask>
<g mask="url(#mask1_292_7627)">
<path d="M13.3987 6.04485C12.295 7.58114 12.3811 8.87219 12.2727 9.58065C12.1643 10.2891 11.5276 10.8341 10.7143 10.7329C9.90111 10.6317 9.45209 9.91801 9.50213 8.99546C9.56747 7.80302 10.2167 6.48991 11.4942 5.58033C12.4632 4.89004 13.4001 6.04485 13.4001 6.04485H13.3987Z" fill="#CA7E02"/>
<path d="M13.5915 6.04485C14.6953 7.58114 14.6091 8.87219 14.7175 9.58065C14.8259 10.2891 15.4626 10.8341 16.2759 10.7329C17.0891 10.6317 17.5381 9.91801 17.4881 8.99546C17.4227 7.80302 16.7735 6.48991 15.496 5.58033C14.5271 4.89004 13.5901 6.04485 13.5901 6.04485H13.5915Z" fill="#CA7E02"/>
</g>
</svg>
