<svg width="27" height="28" viewBox="0 0 27 28" fill="none" xmlns="http://www.w3.org/2000/svg">
<path d="M12.9469 10.6394C12.8717 12.6335 12.7227 16.7718 12.6475 18.2495C14.4412 18.2495 14.7392 18.1751 14.515 18.1021C14.4398 16.181 13.9914 10.7881 13.9914 10.7881L12.9455 10.6407L12.9469 10.6394Z" fill="#96D534"/>
<path d="M15.9346 19.5044C15.2619 19.8735 12.1243 20.7604 11.0784 20.686C10.0325 20.6117 8.76245 20.686 8.46303 19.6518C8.1093 18.4261 8.94349 17.531 10.2568 17.3616C11.9753 17.1399 14.3664 16.4017 15.4861 15.5878C16.6072 14.7753 18.0542 13.8898 19.4816 13.6378C21.267 13.3224 22.8073 14.1831 24.75 15.6608V22.1624C21.6862 22.1624 20.1919 22.9005 18.9218 23.3439C17.6517 23.7874 13.6924 24.3782 12.2719 24.0091C10.8528 23.64 4.50235 19.8721 3.38128 19.2813C2.2602 18.6905 1.81177 17.0655 2.78383 16.4733C3.7545 15.8825 4.95078 16.2516 5.69724 16.5477C6.4437 16.8438 8.76106 18.2471 8.76106 18.2471" fill="#FBB58E"/>
<path d="M15.9347 19.5024C15.262 19.8715 12.1244 20.7584 11.0785 20.684C10.0327 20.6097 8.76258 20.684 8.46316 19.6498C8.34479 19.238 8.35872 18.8634 8.48127 18.5426" stroke="#F49578" stroke-width="1.2" stroke-linecap="round" stroke-linejoin="round"/>
<path d="M13.3941 11.9683C13.3941 11.9683 13.3523 11.1558 13.3941 9.0873C13.4693 5.39378 17.5776 1.55153 22.5089 3.10358C23.3306 10.7867 19.5203 12.4131 13.3941 11.9697V11.9683Z" fill="#96D534"/>
<path d="M13.4701 11.9683C13.4701 11.9683 13.5119 11.1558 13.4701 9.0873C13.3949 5.39378 9.2866 1.55153 4.35525 3.10358C3.53359 10.7867 7.34386 12.4131 13.4701 11.9697V11.9683Z" fill="#96D534"/>
<path d="M13.4314 10.8259C13.4314 10.8259 16.4047 7.02908 19.669 5.91083" stroke="#67B721" stroke-width="1.2" stroke-linecap="round" stroke-linejoin="round"/>
<path d="M7.19604 5.91083C10.4813 6.5333 13.4337 10.8259 13.4337 10.8259" stroke="#67B721" stroke-width="1.2" stroke-linecap="round" stroke-linejoin="round"/>
</svg>
